<?xml version="1.0" encoding="UTF-8"?>
<!DOCTYPE svg  PUBLIC '-//W3C//DTD SVG 1.1//EN'  'http://www.w3.org/Graphics/SVG/1.1/DTD/svg11.dtd'>
<svg version="1.1" xmlns="http://www.w3.org/2000/svg">
<defs>
<font id="RoundorNonCommercialRegular" horiz-adv-x="260">
<font-face font-family="RoundorNonCommercial" font-weight="400" ascent="800" bbox="20.2 -115.042 877 715.333" cap-height="637" descent="-200" panose-1="0 0 0 0 0 0 0 0 0 0" underline-position="0" underline-thickness="0" unicode-range="U+0020-00AD" units-per-em="1000"/>
<missing-glyph/>
<glyph glyph-name="space" horiz-adv-x="297" unicode=" "/>
<glyph d="M209 -99l-8 -6q-17 -12 -32 3l-3 3q-124 183 -126 401q0 219 123 398q2 2 3 4q12 17 31 8q3 -1 4 -2l8 -5q17 -13 8 -33q-81 -154 -92 -301q-3 -33 -3 -69q0 -172 75 -330q9 -19 20 -39q8 -19 -8 -32z" glyph-name="parenleft" unicode="("/>
<glyph d="M58 -105l-8 6q-16 13 -7 32q95 182 95 369q0 171 -73 327q-10 21 -22 43q-9 20 8 33l7 5q18 12 33 -3l3 -3q124 -183 126 -402q0 -219 -124 -397q-1 -3 -2 -4q-12 -17 -32 -8z" glyph-name="parenright" unicode=")"/>
<glyph d="M283 470q17 -9 10 -27q-1 -2 -1 -3q-10 -16 -27 -9q-3 1 -4 1l-72 42v-83q-4 -19 -22 -22q-17 0 -21 17q-1 3 -1 5v83l-72 -42q-16 -9 -28 5q-1 2 -2 3q-9 17 5 28q2 2 3 2l72 42l-72 42q-16 9 -10 27q1 2 2 3q9 16 27 9q2 -1 3 -1l72 -42v83q0 18 17 22q3 0 5 1 q18 -5 22 -23v-83l72 42q17 9 28 -5l3 -3q9 -16 -6 -28q-2 -2 -3 -2l-72 -42z" glyph-name="asterisk" horiz-adv-x="335" unicode="*"/>
<glyph d="M456 331q19 0 24 -19q1 -3 1 -6q0 -19 -18 -24q-4 -1 -7 -1h-167v-178q0 -20 -18 -24q-4 -1 -7 -1h-7q-19 0 -24 18q-1 4 -1 7v178h-167q-19 0 -24 19q-1 3 -1 6q0 19 18 24q4 1 7 1h167v173q6 20 25 24h7q19 0 24 -18q1 -4 1 -6v-173h167z" glyph-name="plus" horiz-adv-x="521" unicode="+"/>
<glyph d="M93 85q42 0 57 -40q6 -15 6 -33q-1 -67 -53 -120q-15 -13 -31 -2q-16 12 -7 30q2 3 4 5q29 32 33 62q-5 -2 -14 -2q-32 0 -44 29q-4 10 -4 20q0 32 30 46q11 5 23 5z" glyph-name="comma" horiz-adv-x="196" unicode=","/>
<glyph d="M65 264q-19 0 -24 19q-1 4 -1 6v13q0 19 19 24q4 1 6 1h190q19 0 24 -19q1 -4 1 -6v-13q0 -19 -19 -24q-4 -1 -6 -1h-190z" glyph-name="hyphen" horiz-adv-x="321" unicode="-"/>
<glyph d="M95 94q35 0 50 -30q5 -12 5 -22q0 -33 -31 -47q-12 -6 -24 -6q-35 0 -50 31q-5 11 -5 22q0 32 31 46q12 6 24 6z" glyph-name="period" horiz-adv-x="190" unicode="."/>
<glyph d="M106 17q-7 -16 -25 -17h-15q-21 0 -25 19q-2 8 0 15l219 624q8 16 25 17h15q21 0 25 -20q2 -8 0 -14z" glyph-name="slash" horiz-adv-x="367" unicode="/"/>
<glyph d="M295 -11q-146 0 -214 137q-41 84 -41 192q0 150 73 243q69 85 182 85q145 0 213 -136q42 -84 42 -192q0 -147 -72 -240q-69 -89 -183 -89zM295 59q115 0 154 135q16 55 16 124q0 158 -74 223q-40 34 -96 35q-115 0 -154 -135q-16 -55 -16 -123q0 -158 73 -223 q41 -35 97 -36z" glyph-name="zero" horiz-adv-x="590" unicode="0"/>
<glyph d="M212 0q-20 0 -25 19q-1 4 -1 7v507l-89 -91q-15 -15 -33 -3l-3 3l-13 12q-16 16 -3 33q2 3 3 4l141 138q8 7 17 8h37q20 0 25 -19q1 -4 1 -7v-585q0 -20 -19 -25q-4 -1 -7 -1h-31z" glyph-name="one" horiz-adv-x="309" unicode="1"/>
<glyph d="M65 0q-19 0 -24 19q-1 4 -1 6v26q1 13 10 21q214 160 283 234q78 84 78 153q0 78 -77 106q-29 11 -63 11q-100 -1 -164 -62q-16 -15 -33 -2q-2 1 -3 2l-15 15q-15 15 -3 33l3 3q86 79 215 81q110 0 174 -63q50 -50 50 -124q0 -108 -142 -240q-63 -58 -182 -148h302 q19 0 24 -19q1 -4 1 -7v-20q0 -19 -19 -24q-4 -1 -6 -1h-408z" glyph-name="two" horiz-adv-x="538" unicode="2"/>
<glyph d="M47 75q-15 16 -2 32q2 2 2 3l15 15q14 15 32 3l3 -3q68 -65 169 -65q108 0 143 65q13 25 13 54q0 95 -122 110q-21 3 -44 3h-43q-20 -1 -25 18q0 4 -1 7v20q0 20 20 25h6h43q110 0 144 60q11 20 11 45q0 68 -72 96q-35 13 -77 13q-90 -1 -158 -60q-16 -14 -33 -1 q-1 2 -2 3l-13 13q-14 16 -1 33q1 2 2 2q84 80 212 81q128 0 189 -70q36 -42 36 -99q0 -87 -84 -129q-28 -14 -59 -19q66 -6 112 -54q42 -43 42 -104q0 -96 -86 -147q-62 -36 -151 -36q-133 0 -213 78z" glyph-name="three" horiz-adv-x="545" unicode="3"/>
<glyph d="M383 0q-20 0 -25 19q-1 4 -1 7v135h-291q-20 0 -25 19q-1 4 -1 7v32q1 9 5 15l273 392q9 10 21 11h75q20 0 25 -19q1 -4 1 -7v-380h68q20 0 25 -19q1 -4 1 -6v-19q0 -20 -19 -25q-4 -1 -7 -1h-68v-135q0 -20 -19 -25q-4 -1 -7 -1h-31zM357 231v332l-234 -332h234z" glyph-name="four" horiz-adv-x="574" unicode="4"/>
<glyph d="M47 73q-15 15 -2 32q1 2 2 3l16 17q15 16 33 3l3 -3q66 -65 167 -65q88 0 131 61q23 34 23 75q0 83 -71 119q-36 18 -82 19q-83 -1 -144 -51q-11 -8 -24 -4l-29 10q-17 7 -18 24v299q7 20 26 25h357q19 0 24 -19q1 -3 1 -6v-20q-6 -20 -25 -25h-300v-222q65 56 156 57 q105 0 166 -69q47 -55 47 -134q0 -111 -90 -169q-63 -41 -148 -41q-140 1 -219 84z" glyph-name="five" horiz-adv-x="544" unicode="5"/>
<glyph d="M298 -11q-167 0 -229 156q-29 75 -29 173q0 163 87 254q72 74 185 75q103 -1 168 -61q15 -15 4 -33l-12 -17q-13 -18 -33 -8q-3 2 -5 4q-50 44 -122 44q-110 0 -160 -109q-28 -63 -28 -141v-25q35 52 104 81q43 18 85 18q120 0 180 -78q38 -51 38 -125q0 -95 -73 -155 q-65 -53 -160 -53zM294 59q91 0 133 69q20 32 20 66q0 95 -84 126q-31 11 -69 12q-83 0 -144 -66q-13 -14 -23 -29q9 -101 73 -148q40 -29 94 -30z" glyph-name="six" horiz-adv-x="571" unicode="6"/>
<glyph d="M170 0q-20 0 -25 19q-1 10 2 17l252 530h-334q-19 0 -24 19q-1 4 -1 7v19q0 20 19 25q4 1 6 1h405q19 0 24 -19q1 -4 1 -7v-23q0 -6 -2 -11l-264 -562q-8 -14 -23 -15h-36z" glyph-name="seven" horiz-adv-x="535" unicode="7"/>
<glyph d="M279 -11q-128 0 -195 68q-44 44 -44 105q0 87 95 141q30 16 64 26q-111 31 -140 107q-8 22 -8 46q0 97 103 141q56 24 125 24q115 0 181 -58q47 -43 48 -107q0 -91 -106 -138q-21 -9 -43 -15q101 -29 140 -98q19 -33 19 -69q0 -92 -93 -140q-63 -32 -146 -33zM279 60 q86 0 130 48q25 28 25 63q0 69 -95 107q-33 13 -60 16q-59 -7 -107 -42q-47 -35 -48 -81q0 -63 70 -94q38 -17 85 -17zM279 362q102 16 134 69q11 19 11 41q0 63 -68 91q-35 13 -77 14q-89 0 -127 -52q-17 -24 -17 -53q0 -72 110 -103q17 -4 34 -7z" glyph-name="eight" horiz-adv-x="558" unicode="8"/>
<glyph d="M91 49q-15 16 -3 34l11 17q13 18 32 8q4 -2 6 -4q51 -44 123 -44q116 0 164 117q24 60 24 133q0 16 -1 25q-34 -52 -103 -82q-43 -17 -85 -18q-120 0 -180 78q-39 51 -39 126q0 95 74 155q65 52 160 53q165 0 227 -154q31 -75 31 -176q0 -161 -86 -253q-72 -75 -186 -75 q-101 1 -169 60zM278 304q81 0 142 63q14 16 25 33q-10 102 -76 149q-39 27 -92 27q-91 0 -133 -68q-20 -32 -20 -66q0 -95 84 -127q32 -11 70 -11z" glyph-name="nine" horiz-adv-x="572" unicode="9"/>
<glyph d="M95 361q-33 0 -49 30q-6 12 -6 23q0 32 31 47q12 5 24 5q35 0 50 -30q5 -11 5 -22q0 -32 -31 -47q-12 -5 -24 -6zM95 94q35 0 50 -30q5 -12 5 -22q0 -33 -31 -47q-12 -6 -24 -6q-35 0 -50 31q-5 11 -5 22q0 32 31 46q12 6 24 6z" glyph-name="colon" horiz-adv-x="190" unicode=":"/>
<glyph d="M98 352q-35 0 -50 31q-5 11 -5 22q0 32 31 47q12 5 24 5q35 0 50 -30q5 -11 5 -22q0 -32 -31 -47q-12 -5 -24 -6zM93 85q42 0 57 -40q6 -15 6 -33q-1 -67 -53 -120q-15 -13 -31 -2q-16 12 -7 30q2 3 4 5q29 32 33 62q-5 -2 -14 -2q-32 0 -44 29q-4 10 -4 20q0 32 30 46 q11 5 23 5z" glyph-name="semicolon" horiz-adv-x="196" unicode=";"/>
<glyph d="M65 368q-19 0 -24 19q-1 4 -1 6q0 20 19 25q4 1 6 1h391q19 0 24 -19q1 -4 1 -7q0 -19 -19 -24q-4 -1 -6 -1h-391zM65 184q-19 0 -24 19q-1 3 -1 6q6 21 25 25h391q19 0 24 -18q1 -4 1 -7q0 -19 -19 -24q-4 -1 -6 -1h-391z" glyph-name="equal" horiz-adv-x="521" unicode="="/>
<glyph d="M249 645q114 0 168 -73q28 -40 28 -90q0 -79 -74 -141q-13 -10 -38 -29q-56 -41 -71 -66q-10 -19 -10 -39q0 -9 2 -18q5 -20 -15 -29q-5 -2 -10 -2h-19q-18 2 -25 18q-6 18 -6 39q0 63 64 116q11 8 32 24q57 41 72 69q12 22 12 46q0 59 -54 85q-28 12 -63 12 q-87 -1 -142 -63q-14 -16 -32 -5q-4 3 -6 6l-16 17q-13 17 0 34q78 88 203 89zM238 94q35 0 50 -31q5 -11 5 -22q0 -32 -30 -46q-13 -6 -25 -6q-35 0 -50 30q-5 12 -5 22q0 33 31 47q12 6 24 6z" glyph-name="question" horiz-adv-x="486" unicode="?"/>
<glyph d="M632 35q8 -19 -10 -31q-7 -4 -13 -4h-40q-17 1 -23 16l-219 540l-141 -344h170q19 0 24 -19q1 -4 1 -7v-18q0 -20 -19 -25q-4 -1 -6 -1h-195l-52 -126q-8 -15 -24 -16h-39q-20 0 -25 19q-2 9 1 16l247 586q8 15 24 16h69q17 -1 24 -16z" glyph-name="A" horiz-adv-x="654" unicode="A"/>
<glyph d="M632 35q8 -19 -10 -31q-7 -4 -13 -4h-40q-17 1 -23 16l-219 540l-141 -344h170q19 0 24 -19q1 -4 1 -7v-18q0 -20 -19 -25q-4 -1 -6 -1h-195l-52 -126q-8 -15 -24 -16h-39q-20 0 -25 19q-2 9 1 16l247 586q8 15 24 16h69q17 -1 24 -16z" glyph-name="A" horiz-adv-x="654" unicode="å"/>
<glyph d="M632 35q8 -19 -10 -31q-7 -4 -13 -4h-40q-17 1 -23 16l-219 540l-141 -344h170q19 0 24 -19q1 -4 1 -7v-18q0 -20 -19 -25q-4 -1 -6 -1h-195l-52 -126q-8 -15 -24 -16h-39q-20 0 -25 19q-2 9 1 16l247 586q8 15 24 16h69q17 -1 24 -16z" glyph-name="A" horiz-adv-x="654" unicode="ä"/>
<glyph d="M632 35q8 -19 -10 -31q-7 -4 -13 -4h-40q-17 1 -23 16l-219 540l-141 -344h170q19 0 24 -19q1 -4 1 -7v-18q0 -20 -19 -25q-4 -1 -6 -1h-195l-52 -126q-8 -15 -24 -16h-39q-20 0 -25 19q-2 9 1 16l247 586q8 15 24 16h69q17 -1 24 -16z" glyph-name="A" horiz-adv-x="654" unicode="ã"/>
<glyph d="M632 35q8 -19 -10 -31q-7 -4 -13 -4h-40q-17 1 -23 16l-219 540l-141 -344h170q19 0 24 -19q1 -4 1 -7v-18q0 -20 -19 -25q-4 -1 -6 -1h-195l-52 -126q-8 -15 -24 -16h-39q-20 0 -25 19q-2 9 1 16l247 586q8 15 24 16h69q17 -1 24 -16z" glyph-name="A" horiz-adv-x="654" unicode="â"/>
<glyph d="M632 35q8 -19 -10 -31q-7 -4 -13 -4h-40q-17 1 -23 16l-219 540l-141 -344h170q19 0 24 -19q1 -4 1 -7v-18q0 -20 -19 -25q-4 -1 -6 -1h-195l-52 -126q-8 -15 -24 -16h-39q-20 0 -25 19q-2 9 1 16l247 586q8 15 24 16h69q17 -1 24 -16z" glyph-name="A" horiz-adv-x="654" unicode="á"/>
<glyph d="M632 35q8 -19 -10 -31q-7 -4 -13 -4h-40q-17 1 -23 16l-219 540l-141 -344h170q19 0 24 -19q1 -4 1 -7v-18q0 -20 -19 -25q-4 -1 -6 -1h-195l-52 -126q-8 -15 -24 -16h-39q-20 0 -25 19q-2 9 1 16l247 586q8 15 24 16h69q17 -1 24 -16z" glyph-name="A" horiz-adv-x="654" unicode="à"/>
<glyph d="M632 35q8 -19 -10 -31q-7 -4 -13 -4h-40q-17 1 -23 16l-219 540l-141 -344h170q19 0 24 -19q1 -4 1 -7v-18q0 -20 -19 -25q-4 -1 -6 -1h-195l-52 -126q-8 -15 -24 -16h-39q-20 0 -25 19q-2 9 1 16l247 586q8 15 24 16h69q17 -1 24 -16z" glyph-name="A" horiz-adv-x="654" unicode="Å"/>
<glyph d="M632 35q8 -19 -10 -31q-7 -4 -13 -4h-40q-17 1 -23 16l-219 540l-141 -344h170q19 0 24 -19q1 -4 1 -7v-18q0 -20 -19 -25q-4 -1 -6 -1h-195l-52 -126q-8 -15 -24 -16h-39q-20 0 -25 19q-2 9 1 16l247 586q8 15 24 16h69q17 -1 24 -16z" glyph-name="A" horiz-adv-x="654" unicode="Ä"/>
<glyph d="M632 35q8 -19 -10 -31q-7 -4 -13 -4h-40q-17 1 -23 16l-219 540l-141 -344h170q19 0 24 -19q1 -4 1 -7v-18q0 -20 -19 -25q-4 -1 -6 -1h-195l-52 -126q-8 -15 -24 -16h-39q-20 0 -25 19q-2 9 1 16l247 586q8 15 24 16h69q17 -1 24 -16z" glyph-name="A" horiz-adv-x="654" unicode="Ã"/>
<glyph d="M632 35q8 -19 -10 -31q-7 -4 -13 -4h-40q-17 1 -23 16l-219 540l-141 -344h170q19 0 24 -19q1 -4 1 -7v-18q0 -20 -19 -25q-4 -1 -6 -1h-195l-52 -126q-8 -15 -24 -16h-39q-20 0 -25 19q-2 9 1 16l247 586q8 15 24 16h69q17 -1 24 -16z" glyph-name="A" horiz-adv-x="654" unicode="Â"/>
<glyph d="M632 35q8 -19 -10 -31q-7 -4 -13 -4h-40q-17 1 -23 16l-219 540l-141 -344h170q19 0 24 -19q1 -4 1 -7v-18q0 -20 -19 -25q-4 -1 -6 -1h-195l-52 -126q-8 -15 -24 -16h-39q-20 0 -25 19q-2 9 1 16l247 586q8 15 24 16h69q17 -1 24 -16z" glyph-name="A" horiz-adv-x="654" unicode="Á"/>
<glyph d="M632 35q8 -19 -10 -31q-7 -4 -13 -4h-40q-17 1 -23 16l-219 540l-141 -344h170q19 0 24 -19q1 -4 1 -7v-18q0 -20 -19 -25q-4 -1 -6 -1h-195l-52 -126q-8 -15 -24 -16h-39q-20 0 -25 19q-2 9 1 16l247 586q8 15 24 16h69q17 -1 24 -16z" glyph-name="A" horiz-adv-x="654" unicode="À"/>
<glyph d="M632 35q8 -19 -10 -31q-7 -4 -13 -4h-40q-17 1 -23 16l-219 540l-141 -344h170q19 0 24 -19q1 -4 1 -7v-18q0 -20 -19 -25q-4 -1 -6 -1h-195l-52 -126q-8 -15 -24 -16h-39q-20 0 -25 19q-2 9 1 16l247 586q8 15 24 16h69q17 -1 24 -16z" glyph-name="A" horiz-adv-x="654" unicode="a"/>
<glyph d="M407 328q65 -9 104 -71q26 -40 26 -85q0 -102 -83 -147q-46 -25 -110 -25h-293q-10 2 -11 11v614q2 10 11 12h286q115 0 163 -76q24 -38 24 -87q0 -81 -66 -124q-24 -16 -51 -22zM328 71q89 0 115 65q8 20 8 44q0 64 -54 94q-30 16 -69 16h-98q-10 2 -11 11v49q2 9 11 11 h93q82 0 107 60q8 20 8 42q0 65 -56 91q-26 12 -59 12h-200v-495h205z" glyph-name="B" horiz-adv-x="577" unicode="B"/>
<glyph d="M407 328q65 -9 104 -71q26 -40 26 -85q0 -102 -83 -147q-46 -25 -110 -25h-293q-10 2 -11 11v614q2 10 11 12h286q115 0 163 -76q24 -38 24 -87q0 -81 -66 -124q-24 -16 -51 -22zM328 71q89 0 115 65q8 20 8 44q0 64 -54 94q-30 16 -69 16h-98q-10 2 -11 11v49q2 9 11 11 h93q82 0 107 60q8 20 8 42q0 65 -56 91q-26 12 -59 12h-200v-495h205z" glyph-name="B" horiz-adv-x="577" unicode="b"/>
<glyph d="M383 -11q-150 0 -248 96q-95 93 -95 233q0 151 107 245q97 84 236 85q143 -1 233 -101q14 -16 1 -33q-4 -4 -8 -7l-23 -12q-18 -9 -32 6q-58 67 -150 75q-11 1 -21 1q-122 0 -196 -86q-61 -71 -61 -173q0 -124 87 -198q72 -60 170 -60q93 0 160 64q6 7 12 13q13 14 31 6 l23 -12q18 -10 13 -30q-3 -6 -6 -10q-93 -101 -233 -102z" glyph-name="C" horiz-adv-x="663" unicode="C"/>
<glyph d="M383 -11q-150 0 -248 96q-95 93 -95 233q0 151 107 245q97 84 236 85q143 -1 233 -101q14 -16 1 -33q-4 -4 -8 -7l-23 -12q-18 -9 -32 6q-58 67 -150 75q-11 1 -21 1q-122 0 -196 -86q-61 -71 -61 -173q0 -124 87 -198q72 -60 170 -60q93 0 160 64q6 7 12 13q13 14 31 6 l23 -12q18 -10 13 -30q-3 -6 -6 -10q-93 -101 -233 -102z" glyph-name="C" horiz-adv-x="663" unicode="ç"/>
<glyph d="M383 -11q-150 0 -248 96q-95 93 -95 233q0 151 107 245q97 84 236 85q143 -1 233 -101q14 -16 1 -33q-4 -4 -8 -7l-23 -12q-18 -9 -32 6q-58 67 -150 75q-11 1 -21 1q-122 0 -196 -86q-61 -71 -61 -173q0 -124 87 -198q72 -60 170 -60q93 0 160 64q6 7 12 13q13 14 31 6 l23 -12q18 -10 13 -30q-3 -6 -6 -10q-93 -101 -233 -102z" glyph-name="C" horiz-adv-x="663" unicode="Ç"/>
<glyph d="M383 -11q-150 0 -248 96q-95 93 -95 233q0 151 107 245q97 84 236 85q143 -1 233 -101q14 -16 1 -33q-4 -4 -8 -7l-23 -12q-18 -9 -32 6q-58 67 -150 75q-11 1 -21 1q-122 0 -196 -86q-61 -71 -61 -173q0 -124 87 -198q72 -60 170 -60q93 0 160 64q6 7 12 13q13 14 31 6 l23 -12q18 -10 13 -30q-3 -6 -6 -10q-93 -101 -233 -102z" glyph-name="C" horiz-adv-x="663" unicode="c"/>
<glyph d="M268 637q167 0 263 -106q79 -88 79 -213q0 -146 -103 -236q-94 -82 -239 -82h-202q-20 0 -25 19q-1 4 -1 7v419q0 20 19 24q4 1 7 1h31q20 0 25 -19q1 -4 1 -6v-374h145q139 0 209 97q47 64 47 150q0 124 -86 193q-68 55 -170 55h-202q-20 0 -25 19q-1 4 -1 7v19 q0 20 19 25q4 1 7 1h202z" glyph-name="D" horiz-adv-x="651" unicode="D"/>
<glyph d="M268 637q167 0 263 -106q79 -88 79 -213q0 -146 -103 -236q-94 -82 -239 -82h-202q-20 0 -25 19q-1 4 -1 7v419q0 20 19 24q4 1 7 1h31q20 0 25 -19q1 -4 1 -6v-374h145q139 0 209 97q47 64 47 150q0 124 -86 193q-68 55 -170 55h-202q-20 0 -25 19q-1 4 -1 7v19 q0 20 19 25q4 1 7 1h202z" glyph-name="D" horiz-adv-x="651" unicode="d"/>
<glyph d="M451 0l-386 1q-19 0 -24 19q-1 3 -1 6v585q0 20 19 25q4 1 6 1h386q20 0 25 -19q1 -4 1 -7v-19q0 -20 -19 -25q-4 -1 -7 -1h-328v-230h225q20 0 25 -19q1 -4 1 -7v-19q0 -20 -19 -25q-4 -1 -7 -1h-225v-194h328q20 0 25 -20q1 -3 1 -6v-19q0 -20 -19 -25q-4 -1 -7 -1z " glyph-name="E" horiz-adv-x="517" unicode="E"/>
<glyph d="M451 0l-386 1q-19 0 -24 19q-1 3 -1 6v585q0 20 19 25q4 1 6 1h386q20 0 25 -19q1 -4 1 -7v-19q0 -20 -19 -25q-4 -1 -7 -1h-328v-230h225q20 0 25 -19q1 -4 1 -7v-19q0 -20 -19 -25q-4 -1 -7 -1h-225v-194h328q20 0 25 -20q1 -3 1 -6v-19q0 -20 -19 -25q-4 -1 -7 -1z " glyph-name="E" horiz-adv-x="517" unicode="ë"/>
<glyph d="M451 0l-386 1q-19 0 -24 19q-1 3 -1 6v585q0 20 19 25q4 1 6 1h386q20 0 25 -19q1 -4 1 -7v-19q0 -20 -19 -25q-4 -1 -7 -1h-328v-230h225q20 0 25 -19q1 -4 1 -7v-19q0 -20 -19 -25q-4 -1 -7 -1h-225v-194h328q20 0 25 -20q1 -3 1 -6v-19q0 -20 -19 -25q-4 -1 -7 -1z " glyph-name="E" horiz-adv-x="517" unicode="ê"/>
<glyph d="M451 0l-386 1q-19 0 -24 19q-1 3 -1 6v585q0 20 19 25q4 1 6 1h386q20 0 25 -19q1 -4 1 -7v-19q0 -20 -19 -25q-4 -1 -7 -1h-328v-230h225q20 0 25 -19q1 -4 1 -7v-19q0 -20 -19 -25q-4 -1 -7 -1h-225v-194h328q20 0 25 -20q1 -3 1 -6v-19q0 -20 -19 -25q-4 -1 -7 -1z " glyph-name="E" horiz-adv-x="517" unicode="é"/>
<glyph d="M451 0l-386 1q-19 0 -24 19q-1 3 -1 6v585q0 20 19 25q4 1 6 1h386q20 0 25 -19q1 -4 1 -7v-19q0 -20 -19 -25q-4 -1 -7 -1h-328v-230h225q20 0 25 -19q1 -4 1 -7v-19q0 -20 -19 -25q-4 -1 -7 -1h-225v-194h328q20 0 25 -20q1 -3 1 -6v-19q0 -20 -19 -25q-4 -1 -7 -1z " glyph-name="E" horiz-adv-x="517" unicode="è"/>
<glyph d="M451 0l-386 1q-19 0 -24 19q-1 3 -1 6v585q0 20 19 25q4 1 6 1h386q20 0 25 -19q1 -4 1 -7v-19q0 -20 -19 -25q-4 -1 -7 -1h-328v-230h225q20 0 25 -19q1 -4 1 -7v-19q0 -20 -19 -25q-4 -1 -7 -1h-225v-194h328q20 0 25 -20q1 -3 1 -6v-19q0 -20 -19 -25q-4 -1 -7 -1z " glyph-name="E" horiz-adv-x="517" unicode="Ë"/>
<glyph d="M451 0l-386 1q-19 0 -24 19q-1 3 -1 6v585q0 20 19 25q4 1 6 1h386q20 0 25 -19q1 -4 1 -7v-19q0 -20 -19 -25q-4 -1 -7 -1h-328v-230h225q20 0 25 -19q1 -4 1 -7v-19q0 -20 -19 -25q-4 -1 -7 -1h-225v-194h328q20 0 25 -20q1 -3 1 -6v-19q0 -20 -19 -25q-4 -1 -7 -1z " glyph-name="E" horiz-adv-x="517" unicode="Ê"/>
<glyph d="M451 0l-386 1q-19 0 -24 19q-1 3 -1 6v585q0 20 19 25q4 1 6 1h386q20 0 25 -19q1 -4 1 -7v-19q0 -20 -19 -25q-4 -1 -7 -1h-328v-230h225q20 0 25 -19q1 -4 1 -7v-19q0 -20 -19 -25q-4 -1 -7 -1h-225v-194h328q20 0 25 -20q1 -3 1 -6v-19q0 -20 -19 -25q-4 -1 -7 -1z " glyph-name="E" horiz-adv-x="517" unicode="É"/>
<glyph d="M451 0l-386 1q-19 0 -24 19q-1 3 -1 6v585q0 20 19 25q4 1 6 1h386q20 0 25 -19q1 -4 1 -7v-19q0 -20 -19 -25q-4 -1 -7 -1h-328v-230h225q20 0 25 -19q1 -4 1 -7v-19q0 -20 -19 -25q-4 -1 -7 -1h-225v-194h328q20 0 25 -20q1 -3 1 -6v-19q0 -20 -19 -25q-4 -1 -7 -1z " glyph-name="E" horiz-adv-x="517" unicode="È"/>
<glyph d="M451 0l-386 1q-19 0 -24 19q-1 3 -1 6v585q0 20 19 25q4 1 6 1h386q20 0 25 -19q1 -4 1 -7v-19q0 -20 -19 -25q-4 -1 -7 -1h-328v-230h225q20 0 25 -19q1 -4 1 -7v-19q0 -20 -19 -25q-4 -1 -7 -1h-225v-194h328q20 0 25 -20q1 -3 1 -6v-19q0 -20 -19 -25q-4 -1 -7 -1z " glyph-name="E" horiz-adv-x="517" unicode="e"/>
<glyph d="M66 0q-20 0 -25 19q-1 4 -1 7v585q0 20 19 25q4 1 7 1h385q20 0 25 -19q1 -4 1 -7v-19q0 -20 -19 -25q-4 -1 -7 -1h-328v-230h226q20 0 25 -19q1 -4 1 -7v-19q0 -20 -19 -25q-4 -1 -7 -1h-226v-239q0 -20 -19 -25q-4 -1 -7 -1h-31z" glyph-name="F" horiz-adv-x="517" unicode="F"/>
<glyph d="M66 0q-20 0 -25 19q-1 4 -1 7v585q0 20 19 25q4 1 7 1h385q20 0 25 -19q1 -4 1 -7v-19q0 -20 -19 -25q-4 -1 -7 -1h-328v-230h226q20 0 25 -19q1 -4 1 -7v-19q0 -20 -19 -25q-4 -1 -7 -1h-226v-239q0 -20 -19 -25q-4 -1 -7 -1h-31z" glyph-name="F" horiz-adv-x="517" unicode="f"/>
<glyph d="M383 -11q-149 0 -248 96q-95 94 -95 235q0 152 109 246q96 83 234 83q142 -1 237 -94q15 -16 3 -33q-4 -5 -8 -8l-21 -12q-17 -10 -32 4q-76 70 -179 72q-122 0 -196 -85q-61 -72 -61 -173q0 -124 87 -199q72 -60 170 -60q97 0 169 59q6 5 11 10v103h-109q-20 0 -25 20 q-1 3 -1 6v19q0 20 20 25q3 1 6 1h166q19 0 24 -19q1 -4 1 -6v-160q-1 -20 -14 -34q-102 -95 -248 -96z" glyph-name="G" horiz-adv-x="685" unicode="G"/>
<glyph d="M383 -11q-149 0 -248 96q-95 94 -95 235q0 152 109 246q96 83 234 83q142 -1 237 -94q15 -16 3 -33q-4 -5 -8 -8l-21 -12q-17 -10 -32 4q-76 70 -179 72q-122 0 -196 -85q-61 -72 -61 -173q0 -124 87 -199q72 -60 170 -60q97 0 169 59q6 5 11 10v103h-109q-20 0 -25 20 q-1 3 -1 6v19q0 20 20 25q3 1 6 1h166q19 0 24 -19q1 -4 1 -6v-160q-1 -20 -14 -34q-102 -95 -248 -96z" glyph-name="G" horiz-adv-x="685" unicode="g"/>
<glyph d="M538 0q-19 0 -24 18q-1 4 -1 7v234h-390v-234q0 -19 -18 -24q-4 -1 -7 -1h-33q-19 0 -24 18q-1 4 -1 7v587q0 19 18 24q4 1 7 1h33q19 0 24 -19q1 -3 1 -6v-283h390v283q0 19 18 24q4 1 7 1h33q19 0 24 -19q1 -3 1 -6v-587q0 -19 -18 -24q-4 -1 -7 -1h-33z" glyph-name="H" horiz-adv-x="636" unicode="H"/>
<glyph d="M538 0q-19 0 -24 18q-1 4 -1 7v234h-390v-234q0 -19 -18 -24q-4 -1 -7 -1h-33q-19 0 -24 18q-1 4 -1 7v587q0 19 18 24q4 1 7 1h33q19 0 24 -19q1 -3 1 -6v-283h390v283q0 19 18 24q4 1 7 1h33q19 0 24 -19q1 -3 1 -6v-587q0 -19 -18 -24q-4 -1 -7 -1h-33z" glyph-name="H" horiz-adv-x="636" unicode="h"/>
<glyph d="M66 0q-20 0 -25 19q-1 4 -1 7v585q0 20 19 25q4 1 7 1h31q20 0 25 -19q1 -4 1 -7v-585q0 -20 -19 -25q-4 -1 -7 -1h-31z" glyph-name="I" horiz-adv-x="162" unicode="I"/>
<glyph d="M66 0q-20 0 -25 19q-1 4 -1 7v585q0 20 19 25q4 1 7 1h31q20 0 25 -19q1 -4 1 -7v-585q0 -20 -19 -25q-4 -1 -7 -1h-31z" glyph-name="I" horiz-adv-x="162" unicode="ï"/>
<glyph d="M66 0q-20 0 -25 19q-1 4 -1 7v585q0 20 19 25q4 1 7 1h31q20 0 25 -19q1 -4 1 -7v-585q0 -20 -19 -25q-4 -1 -7 -1h-31z" glyph-name="I" horiz-adv-x="162" unicode="î"/>
<glyph d="M66 0q-20 0 -25 19q-1 4 -1 7v585q0 20 19 25q4 1 7 1h31q20 0 25 -19q1 -4 1 -7v-585q0 -20 -19 -25q-4 -1 -7 -1h-31z" glyph-name="I" horiz-adv-x="162" unicode="í"/>
<glyph d="M66 0q-20 0 -25 19q-1 4 -1 7v585q0 20 19 25q4 1 7 1h31q20 0 25 -19q1 -4 1 -7v-585q0 -20 -19 -25q-4 -1 -7 -1h-31z" glyph-name="I" horiz-adv-x="162" unicode="ì"/>
<glyph d="M66 0q-20 0 -25 19q-1 4 -1 7v585q0 20 19 25q4 1 7 1h31q20 0 25 -19q1 -4 1 -7v-585q0 -20 -19 -25q-4 -1 -7 -1h-31z" glyph-name="I" horiz-adv-x="162" unicode="Ï"/>
<glyph d="M66 0q-20 0 -25 19q-1 4 -1 7v585q0 20 19 25q4 1 7 1h31q20 0 25 -19q1 -4 1 -7v-585q0 -20 -19 -25q-4 -1 -7 -1h-31z" glyph-name="I" horiz-adv-x="162" unicode="Î"/>
<glyph d="M66 0q-20 0 -25 19q-1 4 -1 7v585q0 20 19 25q4 1 7 1h31q20 0 25 -19q1 -4 1 -7v-585q0 -20 -19 -25q-4 -1 -7 -1h-31z" glyph-name="I" horiz-adv-x="162" unicode="Í"/>
<glyph d="M66 0q-20 0 -25 19q-1 4 -1 7v585q0 20 19 25q4 1 7 1h31q20 0 25 -19q1 -4 1 -7v-585q0 -20 -19 -25q-4 -1 -7 -1h-31z" glyph-name="I" horiz-adv-x="162" unicode="Ì"/>
<glyph d="M66 0q-20 0 -25 19q-1 4 -1 7v585q0 20 19 25q4 1 7 1h31q20 0 25 -19q1 -4 1 -7v-585q0 -20 -19 -25q-4 -1 -7 -1h-31z" glyph-name="I" horiz-adv-x="162" unicode="i"/>
<glyph d="M234 637h32q20 0 25 -19q1 -4 1 -7v-419q0 -132 -104 -181q-48 -22 -108 -22h-16t-12.5 3.5t-8.5 9.5t-3 13v19q0 20 19 25q4 1 8 1q4 -1 8 -1q84 0 118 66q16 31 16 68v418q0 20 19 25q4 1 6 1z" glyph-name="J" horiz-adv-x="331" unicode="J"/>
<glyph d="M234 637h32q20 0 25 -19q1 -4 1 -7v-419q0 -132 -104 -181q-48 -22 -108 -22h-16t-12.5 3.5t-8.5 9.5t-3 13v19q0 20 19 25q4 1 8 1q4 -1 8 -1q84 0 118 66q16 31 16 68v418q0 20 19 25q4 1 6 1z" glyph-name="J" horiz-adv-x="331" unicode="j"/>
<glyph d="M454 0q-11 1 -19 9l-266 255l-46 -50v-189q0 -19 -19 -24q-4 -1 -7 -1h-32q-19 0 -24 19q-1 4 -1 6v586q0 20 19 25q4 1 6 1h32q20 0 25 -19q1 -4 1 -7v-303l287 320q9 8 19 9h35q20 0 25 -20q2 -13 -6 -23l-260 -281l285 -271q15 -16 1 -33q-8 -9 -19 -9h-36z" glyph-name="K" horiz-adv-x="555" unicode="K"/>
<glyph d="M454 0q-11 1 -19 9l-266 255l-46 -50v-189q0 -19 -19 -24q-4 -1 -7 -1h-32q-19 0 -24 19q-1 4 -1 6v586q0 20 19 25q4 1 6 1h32q20 0 25 -19q1 -4 1 -7v-303l287 320q9 8 19 9h35q20 0 25 -20q2 -13 -6 -23l-260 -281l285 -271q15 -16 1 -33q-8 -9 -19 -9h-36z" glyph-name="K" horiz-adv-x="555" unicode="k"/>
<glyph d="M66 0q-20 0 -25 19q-1 4 -1 6v587q0 19 19 24q4 1 6 1h33q19 0 24 -19q1 -4 1 -6v-541h285q19 0 24 -19q1 -4 1 -7v-20q0 -19 -19 -24q-4 -1 -6 -1h-342z" glyph-name="L" horiz-adv-x="473" unicode="L"/>
<glyph d="M66 0q-20 0 -25 19q-1 4 -1 6v587q0 19 19 24q4 1 6 1h33q19 0 24 -19q1 -4 1 -6v-541h285q19 0 24 -19q1 -4 1 -7v-20q0 -19 -19 -24q-4 -1 -6 -1h-342z" glyph-name="L" horiz-adv-x="473" unicode="l"/>
<glyph d="M636 0q-20 0 -25 19q-1 4 -1 7v510l-218 -421q-9 -14 -25 -15q-17 1 -25 15l-219 421v-510q0 -20 -19 -25q-4 -1 -7 -1h-31q-20 0 -25 19q-1 4 -1 7v585q0 20 19 25q4 1 7 1h78q15 -1 22 -14l201 -377l200 377q8 13 22 14h78q20 0 25 -19q1 -4 1 -7v-585q0 -20 -19 -25 q-4 -1 -7 -1h-31z" glyph-name="M" horiz-adv-x="733" unicode="M"/>
<glyph d="M636 0q-20 0 -25 19q-1 4 -1 7v510l-218 -421q-9 -14 -25 -15q-17 1 -25 15l-219 421v-510q0 -20 -19 -25q-4 -1 -7 -1h-31q-20 0 -25 19q-1 4 -1 7v585q0 20 19 25q4 1 7 1h78q15 -1 22 -14l201 -377l200 377q8 13 22 14h78q20 0 25 -19q1 -4 1 -7v-585q0 -20 -19 -25 q-4 -1 -7 -1h-31z" glyph-name="M" horiz-adv-x="733" unicode="m"/>
<glyph d="M525 0q-13 1 -21 10l-381 498v-482q0 -20 -19 -25q-4 -1 -7 -1h-31q-20 0 -25 19q-1 4 -1 7v585q0 20 19 25q4 1 7 1h46q13 -1 21 -10l376 -488v472q0 20 19 25q4 1 7 1h31q20 0 25 -19q1 -4 1 -7v-585q0 -20 -19 -25q-4 -1 -7 -1h-41z" glyph-name="N" horiz-adv-x="632" unicode="N"/>
<glyph d="M525 0q-13 1 -21 10l-381 498v-482q0 -20 -19 -25q-4 -1 -7 -1h-31q-20 0 -25 19q-1 4 -1 7v585q0 20 19 25q4 1 7 1h46q13 -1 21 -10l376 -488v472q0 20 19 25q4 1 7 1h31q20 0 25 -19q1 -4 1 -7v-585q0 -20 -19 -25q-4 -1 -7 -1h-41z" glyph-name="N" horiz-adv-x="632" unicode="ñ"/>
<glyph d="M525 0q-13 1 -21 10l-381 498v-482q0 -20 -19 -25q-4 -1 -7 -1h-31q-20 0 -25 19q-1 4 -1 7v585q0 20 19 25q4 1 7 1h46q13 -1 21 -10l376 -488v472q0 20 19 25q4 1 7 1h31q20 0 25 -19q1 -4 1 -7v-585q0 -20 -19 -25q-4 -1 -7 -1h-41z" glyph-name="N" horiz-adv-x="632" unicode="Ñ"/>
<glyph d="M525 0q-13 1 -21 10l-381 498v-482q0 -20 -19 -25q-4 -1 -7 -1h-31q-20 0 -25 19q-1 4 -1 7v585q0 20 19 25q4 1 7 1h46q13 -1 21 -10l376 -488v472q0 20 19 25q4 1 7 1h31q20 0 25 -19q1 -4 1 -7v-585q0 -20 -19 -25q-4 -1 -7 -1h-41z" glyph-name="N" horiz-adv-x="632" unicode="n"/>
<glyph d="M371 -11q-155 0 -249 105q-82 91 -82 224q0 150 100 244q92 85 231 86q155 0 249 -104q83 -92 83 -226q0 -148 -100 -242q-93 -86 -232 -87zM371 60q126 0 195 93q51 70 51 165q0 130 -85 203q-67 56 -161 56q-128 0 -197 -95q-48 -69 -48 -164q0 -130 85 -203 q66 -55 160 -55z" glyph-name="O" horiz-adv-x="743" unicode="O"/>
<glyph d="M371 -11q-155 0 -249 105q-82 91 -82 224q0 150 100 244q92 85 231 86q155 0 249 -104q83 -92 83 -226q0 -148 -100 -242q-93 -86 -232 -87zM371 60q126 0 195 93q51 70 51 165q0 130 -85 203q-67 56 -161 56q-128 0 -197 -95q-48 -69 -48 -164q0 -130 85 -203 q66 -55 160 -55z" glyph-name="O" horiz-adv-x="743" unicode="ø"/>
<glyph d="M371 -11q-155 0 -249 105q-82 91 -82 224q0 150 100 244q92 85 231 86q155 0 249 -104q83 -92 83 -226q0 -148 -100 -242q-93 -86 -232 -87zM371 60q126 0 195 93q51 70 51 165q0 130 -85 203q-67 56 -161 56q-128 0 -197 -95q-48 -69 -48 -164q0 -130 85 -203 q66 -55 160 -55z" glyph-name="O" horiz-adv-x="743" unicode="ö"/>
<glyph d="M371 -11q-155 0 -249 105q-82 91 -82 224q0 150 100 244q92 85 231 86q155 0 249 -104q83 -92 83 -226q0 -148 -100 -242q-93 -86 -232 -87zM371 60q126 0 195 93q51 70 51 165q0 130 -85 203q-67 56 -161 56q-128 0 -197 -95q-48 -69 -48 -164q0 -130 85 -203 q66 -55 160 -55z" glyph-name="O" horiz-adv-x="743" unicode="õ"/>
<glyph d="M371 -11q-155 0 -249 105q-82 91 -82 224q0 150 100 244q92 85 231 86q155 0 249 -104q83 -92 83 -226q0 -148 -100 -242q-93 -86 -232 -87zM371 60q126 0 195 93q51 70 51 165q0 130 -85 203q-67 56 -161 56q-128 0 -197 -95q-48 -69 -48 -164q0 -130 85 -203 q66 -55 160 -55z" glyph-name="O" horiz-adv-x="743" unicode="ô"/>
<glyph d="M371 -11q-155 0 -249 105q-82 91 -82 224q0 150 100 244q92 85 231 86q155 0 249 -104q83 -92 83 -226q0 -148 -100 -242q-93 -86 -232 -87zM371 60q126 0 195 93q51 70 51 165q0 130 -85 203q-67 56 -161 56q-128 0 -197 -95q-48 -69 -48 -164q0 -130 85 -203 q66 -55 160 -55z" glyph-name="O" horiz-adv-x="743" unicode="ó"/>
<glyph d="M371 -11q-155 0 -249 105q-82 91 -82 224q0 150 100 244q92 85 231 86q155 0 249 -104q83 -92 83 -226q0 -148 -100 -242q-93 -86 -232 -87zM371 60q126 0 195 93q51 70 51 165q0 130 -85 203q-67 56 -161 56q-128 0 -197 -95q-48 -69 -48 -164q0 -130 85 -203 q66 -55 160 -55z" glyph-name="O" horiz-adv-x="743" unicode="ò"/>
<glyph d="M371 -11q-155 0 -249 105q-82 91 -82 224q0 150 100 244q92 85 231 86q155 0 249 -104q83 -92 83 -226q0 -148 -100 -242q-93 -86 -232 -87zM371 60q126 0 195 93q51 70 51 165q0 130 -85 203q-67 56 -161 56q-128 0 -197 -95q-48 -69 -48 -164q0 -130 85 -203 q66 -55 160 -55z" glyph-name="O" horiz-adv-x="743" unicode="Ø"/>
<glyph d="M371 -11q-155 0 -249 105q-82 91 -82 224q0 150 100 244q92 85 231 86q155 0 249 -104q83 -92 83 -226q0 -148 -100 -242q-93 -86 -232 -87zM371 60q126 0 195 93q51 70 51 165q0 130 -85 203q-67 56 -161 56q-128 0 -197 -95q-48 -69 -48 -164q0 -130 85 -203 q66 -55 160 -55z" glyph-name="O" horiz-adv-x="743" unicode="Ö"/>
<glyph d="M371 -11q-155 0 -249 105q-82 91 -82 224q0 150 100 244q92 85 231 86q155 0 249 -104q83 -92 83 -226q0 -148 -100 -242q-93 -86 -232 -87zM371 60q126 0 195 93q51 70 51 165q0 130 -85 203q-67 56 -161 56q-128 0 -197 -95q-48 -69 -48 -164q0 -130 85 -203 q66 -55 160 -55z" glyph-name="O" horiz-adv-x="743" unicode="Õ"/>
<glyph d="M371 -11q-155 0 -249 105q-82 91 -82 224q0 150 100 244q92 85 231 86q155 0 249 -104q83 -92 83 -226q0 -148 -100 -242q-93 -86 -232 -87zM371 60q126 0 195 93q51 70 51 165q0 130 -85 203q-67 56 -161 56q-128 0 -197 -95q-48 -69 -48 -164q0 -130 85 -203 q66 -55 160 -55z" glyph-name="O" horiz-adv-x="743" unicode="Ô"/>
<glyph d="M371 -11q-155 0 -249 105q-82 91 -82 224q0 150 100 244q92 85 231 86q155 0 249 -104q83 -92 83 -226q0 -148 -100 -242q-93 -86 -232 -87zM371 60q126 0 195 93q51 70 51 165q0 130 -85 203q-67 56 -161 56q-128 0 -197 -95q-48 -69 -48 -164q0 -130 85 -203 q66 -55 160 -55z" glyph-name="O" horiz-adv-x="743" unicode="Ó"/>
<glyph d="M371 -11q-155 0 -249 105q-82 91 -82 224q0 150 100 244q92 85 231 86q155 0 249 -104q83 -92 83 -226q0 -148 -100 -242q-93 -86 -232 -87zM371 60q126 0 195 93q51 70 51 165q0 130 -85 203q-67 56 -161 56q-128 0 -197 -95q-48 -69 -48 -164q0 -130 85 -203 q66 -55 160 -55z" glyph-name="O" horiz-adv-x="743" unicode="Ò"/>
<glyph d="M371 -11q-155 0 -249 105q-82 91 -82 224q0 150 100 244q92 85 231 86q155 0 249 -104q83 -92 83 -226q0 -148 -100 -242q-93 -86 -232 -87zM371 60q126 0 195 93q51 70 51 165q0 130 -85 203q-67 56 -161 56q-128 0 -197 -95q-48 -69 -48 -164q0 -130 85 -203 q66 -55 160 -55z" glyph-name="O" horiz-adv-x="743" unicode="o"/>
<glyph d="M66 0q-20 0 -25 19q-1 4 -1 7v585q0 20 19 25q4 1 7 1h242q109 0 170 -89q39 -59 39 -128q0 -91 -62 -156q-60 -61 -147 -61h-185v-177q0 -20 -19 -25q-4 -1 -7 -1h-31zM298 274q69 0 109 63q24 39 24 83q0 68 -49 113q-37 33 -84 33h-175v-292h175z" glyph-name="P" horiz-adv-x="557" unicode="P"/>
<glyph d="M66 0q-20 0 -25 19q-1 4 -1 7v585q0 20 19 25q4 1 7 1h242q109 0 170 -89q39 -59 39 -128q0 -91 -62 -156q-60 -61 -147 -61h-185v-177q0 -20 -19 -25q-4 -1 -7 -1h-31zM298 274q69 0 109 63q24 39 24 83q0 68 -49 113q-37 33 -84 33h-175v-292h175z" glyph-name="P" horiz-adv-x="557" unicode="p"/>
<glyph d="M611 85l45 -46q15 -15 3 -32q-2 -2 -3 -4l-17 -16q-15 -14 -32 -2q-2 1 -4 3l-51 51l-54 56l-118 122q-15 15 -3 32q2 3 3 4l17 16q16 15 34 1l2 -2l122 -126q62 74 62 179q0 130 -85 203q-67 55 -161 56q-128 0 -197 -96q-48 -68 -48 -163q0 -130 85 -203 q66 -55 160 -56q20 0 38 3q13 1 22 -8l17 -18q15 -15 2 -32q-7 -8 -16 -10q-31 -5 -63 -5q-155 0 -249 104q-82 92 -82 225q0 149 100 243q92 86 231 86q155 0 249 -104q83 -92 83 -225q-1 -142 -92 -236z" glyph-name="Q" horiz-adv-x="743" unicode="Q"/>
<glyph d="M611 85l45 -46q15 -15 3 -32q-2 -2 -3 -4l-17 -16q-15 -14 -32 -2q-2 1 -4 3l-51 51l-54 56l-118 122q-15 15 -3 32q2 3 3 4l17 16q16 15 34 1l2 -2l122 -126q62 74 62 179q0 130 -85 203q-67 55 -161 56q-128 0 -197 -96q-48 -68 -48 -163q0 -130 85 -203 q66 -55 160 -56q20 0 38 3q13 1 22 -8l17 -18q15 -15 2 -32q-7 -8 -16 -10q-31 -5 -63 -5q-155 0 -249 104q-82 92 -82 225q0 149 100 243q92 86 231 86q155 0 249 -104q83 -92 83 -225q-1 -142 -92 -236z" glyph-name="Q" horiz-adv-x="743" unicode="q"/>
<glyph d="M438 0q-12 1 -20 9l-161 194h-134v-178q0 -19 -19 -24q-4 -1 -6 -1h-33q-19 0 -24 19q-1 4 -1 6v586q0 20 19 25q4 1 6 1h243q101 0 163 -79q47 -60 47 -138q0 -99 -70 -163q-48 -42 -104 -47l144 -168q14 -16 0 -33q-8 -8 -19 -9h-31zM298 273q68 0 109 63q25 40 25 84 q0 68 -50 113q-37 33 -84 33h-175v-293h175z" glyph-name="R" horiz-adv-x="558" unicode="R"/>
<glyph d="M438 0q-12 1 -20 9l-161 194h-134v-178q0 -19 -19 -24q-4 -1 -6 -1h-33q-19 0 -24 19q-1 4 -1 6v586q0 20 19 25q4 1 6 1h243q101 0 163 -79q47 -60 47 -138q0 -99 -70 -163q-48 -42 -104 -47l144 -168q14 -16 0 -33q-8 -8 -19 -9h-31zM298 273q68 0 109 63q25 40 25 84 q0 68 -50 113q-37 33 -84 33h-175v-293h175z" glyph-name="R" horiz-adv-x="558" unicode="r"/>
<glyph d="M126 475q0 -51 76 -80q11 -4 123 -34q122 -34 164 -87q32 -40 32 -98q0 -96 -81 -147q-64 -40 -165 -40q-123 0 -209 61q-18 12 -9 31l3 6l18 21q16 15 35 4q74 -52 165 -52q118 0 149 71q8 19 8 39q0 61 -81 93q-18 7 -127 36q-116 32 -156 79q-31 38 -31 92 q0 90 84 141q62 36 146 37q82 -1 147 -29q19 -9 15 -29q-2 -7 -6 -11l-16 -19q-13 -13 -30 -7q-53 23 -117 23q-84 0 -120 -50q-17 -23 -17 -51z" glyph-name="S" horiz-adv-x="561" unicode="S"/>
<glyph d="M126 475q0 -51 76 -80q11 -4 123 -34q122 -34 164 -87q32 -40 32 -98q0 -96 -81 -147q-64 -40 -165 -40q-123 0 -209 61q-18 12 -9 31l3 6l18 21q16 15 35 4q74 -52 165 -52q118 0 149 71q8 19 8 39q0 61 -81 93q-18 7 -127 36q-116 32 -156 79q-31 38 -31 92 q0 90 84 141q62 36 146 37q82 -1 147 -29q19 -9 15 -29q-2 -7 -6 -11l-16 -19q-13 -13 -30 -7q-53 23 -117 23q-84 0 -120 -50q-17 -23 -17 -51z" glyph-name="S" horiz-adv-x="561" unicode="s"/>
<glyph d="M282 0q-20 0 -25 19q-1 4 -1 7v540h-180q-20 0 -25 19q-1 4 -1 7v19q0 20 19 25q4 1 7 1h444q20 0 25 -19q1 -4 1 -7v-19q0 -20 -19 -25q-4 -1 -7 -1h-181v-540q0 -20 -19 -25q-4 -1 -7 -1h-31z" glyph-name="T" horiz-adv-x="597" unicode="T"/>
<glyph d="M282 0q-20 0 -25 19q-1 4 -1 7v540h-180q-20 0 -25 19q-1 4 -1 7v19q0 20 19 25q4 1 7 1h444q20 0 25 -19q1 -4 1 -7v-19q0 -20 -19 -25q-4 -1 -7 -1h-181v-540q0 -20 -19 -25q-4 -1 -7 -1h-31z" glyph-name="T" horiz-adv-x="597" unicode="t"/>
<glyph d="M287 -11q-246 2 -247 259v364q6 20 26 25h32q20 0 25 -19q1 -3 1 -6v-362q0 -155 105 -183q26 -7 58 -7q140 0 160 133q4 26 4 57v362q6 20 26 25h32q20 0 25 -19q1 -3 1 -6v-363q-2 -259 -248 -260z" glyph-name="U" horiz-adv-x="575" unicode="U"/>
<glyph d="M287 -11q-246 2 -247 259v364q6 20 26 25h32q20 0 25 -19q1 -3 1 -6v-362q0 -155 105 -183q26 -7 58 -7q140 0 160 133q4 26 4 57v362q6 20 26 25h32q20 0 25 -19q1 -3 1 -6v-363q-2 -259 -248 -260z" glyph-name="U" horiz-adv-x="575" unicode="ü"/>
<glyph d="M287 -11q-246 2 -247 259v364q6 20 26 25h32q20 0 25 -19q1 -3 1 -6v-362q0 -155 105 -183q26 -7 58 -7q140 0 160 133q4 26 4 57v362q6 20 26 25h32q20 0 25 -19q1 -3 1 -6v-363q-2 -259 -248 -260z" glyph-name="U" horiz-adv-x="575" unicode="û"/>
<glyph d="M287 -11q-246 2 -247 259v364q6 20 26 25h32q20 0 25 -19q1 -3 1 -6v-362q0 -155 105 -183q26 -7 58 -7q140 0 160 133q4 26 4 57v362q6 20 26 25h32q20 0 25 -19q1 -3 1 -6v-363q-2 -259 -248 -260z" glyph-name="U" horiz-adv-x="575" unicode="ú"/>
<glyph d="M287 -11q-246 2 -247 259v364q6 20 26 25h32q20 0 25 -19q1 -3 1 -6v-362q0 -155 105 -183q26 -7 58 -7q140 0 160 133q4 26 4 57v362q6 20 26 25h32q20 0 25 -19q1 -3 1 -6v-363q-2 -259 -248 -260z" glyph-name="U" horiz-adv-x="575" unicode="ù"/>
<glyph d="M287 -11q-246 2 -247 259v364q6 20 26 25h32q20 0 25 -19q1 -3 1 -6v-362q0 -155 105 -183q26 -7 58 -7q140 0 160 133q4 26 4 57v362q6 20 26 25h32q20 0 25 -19q1 -3 1 -6v-363q-2 -259 -248 -260z" glyph-name="U" horiz-adv-x="575" unicode="Ü"/>
<glyph d="M287 -11q-246 2 -247 259v364q6 20 26 25h32q20 0 25 -19q1 -3 1 -6v-362q0 -155 105 -183q26 -7 58 -7q140 0 160 133q4 26 4 57v362q6 20 26 25h32q20 0 25 -19q1 -3 1 -6v-363q-2 -259 -248 -260z" glyph-name="U" horiz-adv-x="575" unicode="Û"/>
<glyph d="M287 -11q-246 2 -247 259v364q6 20 26 25h32q20 0 25 -19q1 -3 1 -6v-362q0 -155 105 -183q26 -7 58 -7q140 0 160 133q4 26 4 57v362q6 20 26 25h32q20 0 25 -19q1 -3 1 -6v-363q-2 -259 -248 -260z" glyph-name="U" horiz-adv-x="575" unicode="Ú"/>
<glyph d="M287 -11q-246 2 -247 259v364q6 20 26 25h32q20 0 25 -19q1 -3 1 -6v-362q0 -155 105 -183q26 -7 58 -7q140 0 160 133q4 26 4 57v362q6 20 26 25h32q20 0 25 -19q1 -3 1 -6v-363q-2 -259 -248 -260z" glyph-name="U" horiz-adv-x="575" unicode="Ù"/>
<glyph d="M287 -11q-246 2 -247 259v364q6 20 26 25h32q20 0 25 -19q1 -3 1 -6v-362q0 -155 105 -183q26 -7 58 -7q140 0 160 133q4 26 4 57v362q6 20 26 25h32q20 0 25 -19q1 -3 1 -6v-363q-2 -259 -248 -260z" glyph-name="U" horiz-adv-x="575" unicode="u"/>
<glyph d="M290 0q-17 1 -24 16l-224 586q-8 20 10 31q7 4 14 4h40q17 -1 24 -17l193 -533l194 533q7 16 24 17h40q20 0 25 -19q2 -8 -1 -16l-223 -586q-8 -15 -24 -16h-68z" glyph-name="V" horiz-adv-x="647" unicode="V"/>
<glyph d="M290 0q-17 1 -24 16l-224 586q-8 20 10 31q7 4 14 4h40q17 -1 24 -17l193 -533l194 533q7 16 24 17h40q20 0 25 -19q2 -8 -1 -16l-223 -586q-8 -15 -24 -16h-68z" glyph-name="V" horiz-adv-x="647" unicode="v"/>
<glyph d="M622 0q-16 1 -23 16l-141 348l-140 -348q-8 -15 -24 -16h-54q-18 1 -24 18l-175 586q-6 19 12 29q6 4 13 4h38q19 -1 24 -19l143 -512l147 365q7 15 24 16h34q17 -1 24 -16l146 -365l142 512q6 18 25 19h39q19 0 24 -18q2 -8 0 -15l-175 -586q-7 -17 -25 -18h-54z" glyph-name="W" horiz-adv-x="918" unicode="W"/>
<glyph d="M622 0q-16 1 -23 16l-141 348l-140 -348q-8 -15 -24 -16h-54q-18 1 -24 18l-175 586q-6 19 12 29q6 4 13 4h38q19 -1 24 -19l143 -512l147 365q7 15 24 16h34q17 -1 24 -16l146 -365l142 512q6 18 25 19h39q19 0 24 -18q2 -8 0 -15l-175 -586q-7 -17 -25 -18h-54z" glyph-name="W" horiz-adv-x="918" unicode="w"/>
<glyph d="M552 0q-12 1 -20 10l-205 261l-206 -261q-8 -9 -20 -10h-35q-20 0 -25 19q-3 13 5 22l227 286l-213 269q-13 17 2 33q8 7 18 8h36q13 -1 20 -10l191 -244l189 244q8 9 20 10h37q19 0 25 -19q2 -13 -5 -23l-212 -268l227 -286q13 -17 -1 -33q-9 -8 -19 -8h-36z" glyph-name="X" horiz-adv-x="653" unicode="X"/>
<glyph d="M552 0q-12 1 -20 10l-205 261l-206 -261q-8 -9 -20 -10h-35q-20 0 -25 19q-3 13 5 22l227 286l-213 269q-13 17 2 33q8 7 18 8h36q13 -1 20 -10l191 -244l189 244q8 9 20 10h37q19 0 25 -19q2 -13 -5 -23l-212 -268l227 -286q13 -17 -1 -33q-9 -8 -19 -8h-36z" glyph-name="X" horiz-adv-x="653" unicode="x"/>
<glyph d="M65 0q-19 0 -24 19q-1 4 -1 6v32q1 9 5 16l370 493h-350q-19 0 -24 19q-1 4 -1 7v20q0 19 19 24q4 1 6 1h432q19 0 24 -19q1 -4 1 -6v-33q-1 -8 -5 -15l-371 -493h358q19 0 24 -19q1 -4 1 -7v-20q0 -19 -19 -24q-4 -1 -6 -1h-439z" glyph-name="Z" horiz-adv-x="569" unicode="Z"/>
<glyph d="M65 0q-19 0 -24 19q-1 4 -1 6v32q1 9 5 16l370 493h-350q-19 0 -24 19q-1 4 -1 7v20q0 19 19 24q4 1 6 1h432q19 0 24 -19q1 -4 1 -6v-33q-1 -8 -5 -15l-371 -493h358q19 0 24 -19q1 -4 1 -7v-20q0 -19 -19 -24q-4 -1 -6 -1h-439z" glyph-name="Z" horiz-adv-x="569" unicode="z"/>
<glyph glyph-name="nonbreakingspace" horiz-adv-x="297" unicode=" "/>
<glyph glyph-name="softhyphen" horiz-adv-x="0" unicode="­"/>
</font>
</defs>
</svg>
